<?xml version="1.0" encoding="utf-8"?>
<!-- Generator: Adobe Illustrator 22.1.0, SVG Export Plug-In . SVG Version: 6.00 Build 0)  -->
<svg version="1.1" id="图层_1" xmlns="http://www.w3.org/2000/svg" xmlns:xlink="http://www.w3.org/1999/xlink" x="0px" y="0px"
	 viewBox="0 0 100 100" style="enable-background:new 0 0 100 100;" xml:space="preserve" width="18px" height="18px">
<g id="Page-1_29_">
	<g id="航班动态-copy" transform="translate(-178.000000, -131.000000)">
		<g id="list-nav-copy" transform="translate(21.000000, 129.000000)">
			<g id="航班号n" transform="translate(157.000000, 1.000000)">
				<path id="Fill-1-Copy-3" d="M49,51c2.9,0,5.3,2.4,5.3,5.3c0,1.9-1.1,3.7-2.7,4.5v5c0,0.6-0.5,1.1-1.1,1.1h-3.1
					c-0.6,0-1.1-0.5-1.1-1.1v-5c-1.6-0.8-2.7-2.7-2.7-4.5C43.7,53.4,46.1,51,49,51z M49,27c2.4,0,4.4,0.8,6,2.8l1.5,1.5
					c0.7,0.7,1.9,0.8,2.7,0.1l3.1-2.7c0.8-0.7,0.9-2,0.2-2.8L61,24.2C57.8,21,53.4,19,49,19c-8.8,0-16,7.2-16,16v6
					c-4.8,4.4-8,10.8-8,18c0,13.7,11.7,24.8,25.6,23.9c12-0.8,21.6-10.4,22.4-22.4C73.9,46.7,62.7,35,49,35c-2.8,0-5.6,0.4-8,1.6
					v-1.5C41,30.7,44.6,27,49,27z" fill="#89a3b5"/>
			</g>
		</g>
	</g>
</g>
</svg>
