<?xml version="1.0" encoding="UTF-8"?>
<svg width="28px" height="28px" viewBox="0 0 28 28" version="1.1" xmlns="http://www.w3.org/2000/svg" xmlns:xlink="http://www.w3.org/1999/xlink">
    <title>编组 2</title>
    <g id="动态调整" stroke="none" stroke-width="1" fill="none" fill-rule="evenodd">
        <g transform="translate(-1491.000000, -58.000000)" id="title">
            <g transform="translate(391.000000, 50.000000)">
                <g id="编组-2" transform="translate(1100.000000, 8.000000)">
                    <circle id="椭圆形" stroke="#0182E7" fill-opacity="0.353289176" fill="#4A90E2" cx="14" cy="14" r="13.5"></circle>
                    <path d="M14,6 C17.5718546,6 20.1588916,8.4127252 21.761111,13.2381756 L22,13.9998596 L21.7609837,14.7622078 C20.1587546,19.5874026 17.57176,22 14,22 C10.42824,22 7.84124543,19.5874026 6.23901634,14.7622078 L6,14.0001404 L6.23888901,13.2381756 C7.84110837,8.4127252 10.4281454,6 14,6 Z M14,7.52380952 C11.2466543,7.52380952 9.20095609,9.39445591 7.78926848,13.5234574 L7.63006526,13.999619 L7.72751825,14.2932727 C9.12057596,18.4885372 11.1465169,20.419876 13.878991,20.4749757 L14,20.4761905 C16.7532705,20.4761905 18.7989246,18.6056526 20.2106125,14.4768903 L20.3695436,13.999619 L20.2726008,13.7070857 C18.8795446,9.51157811 16.8535607,7.58012727 14.1210123,7.52502441 L14,7.52380952 Z M14,11.3333333 C15.5120111,11.3333333 16.7377383,12.5272407 16.7377383,14 C16.7377383,15.4727593 15.5120111,16.6666667 14,16.6666667 C12.4879889,16.6666667 11.2622617,15.4727593 11.2622617,14 C11.2622617,12.5272407 12.4879889,11.3333333 14,11.3333333 Z M14,12.8571429 C13.3519952,12.8571429 12.8266836,13.3688174 12.8266836,14 C12.8266836,14.6311826 13.3519952,15.1428571 14,15.1428571 C14.6480048,15.1428571 15.1733164,14.6311826 15.1733164,14 C15.1733164,13.3688174 14.6480048,12.8571429 14,12.8571429 Z" id="形状" fill="#FFFFFF" fill-rule="nonzero" opacity="0.3"></path>
                </g>
            </g>
        </g>
    </g>
</svg>