<?xml version="1.0" encoding="UTF-8"?>
<svg width="16px" height="16px" viewBox="0 0 16 16" version="1.1" xmlns="http://www.w3.org/2000/svg" xmlns:xlink="http://www.w3.org/1999/xlink">
    <title>感叹号</title>
    <g id="动态调整" stroke="none" stroke-width="1" fill="none" fill-rule="evenodd">
        <g transform="translate(-1638.000000, -137.000000)" fill="#FFFFFF" fill-rule="nonzero" id="编组-11">
            <g transform="translate(1615.952735, 93.669149)">
                <g id="感叹号" transform="translate(22.047265, 43.330851)">
                    <path d="M8,16.0000186 C3.58186354,16.0000186 0,12.4181551 0,8 C0,3.58186354 3.58186354,0 8,0 C12.4181551,0 16.0000186,3.58186354 16.0000186,8 C16.0000186,12.4181551 12.4181551,16.0000186 8,16.0000186 Z M8.00000931,1.06667312 C4.17067673,1.06667312 1.06667312,4.17067673 1.06667312,8.00000931 C1.06667312,11.8293419 4.17067673,14.9333455 8.00000931,14.9333455 C11.8293419,14.9333455 14.9333455,11.8293419 14.9333455,8.00000931 C14.9333455,4.17067673 11.8293419,1.06667312 8.00000931,1.06667312 Z M8.00000931,12.8000149 C7.41067581,12.8000149 6.93334088,12.3226815 6.93334088,11.7333465 C6.93334088,11.144013 7.41067425,10.666678 8.00000931,10.666678 C8.58934281,10.666678 9.06667774,11.1440114 9.06667774,11.7333465 C9.06667774,12.32268 8.58934437,12.8000149 8.00000931,12.8000149 Z M8.00000931,9.60001117 C7.70560897,9.60001117 7.46667588,9.1226778 7.46667588,8.53334274 C7.46667588,8.53334274 6.93334244,3.73333716 6.93334244,3.73333716 C6.93334244,3.14400366 7.41067581,2.66666873 8.00001087,2.66666873 C8.58934437,2.66666873 9.0666793,3.1440021 9.0666793,3.73333716 C9.0666793,3.73333716 8.53334587,8.53334274 8.53334587,8.53334274 C8.53334587,9.12267624 8.29441278,9.60001117 8.00001243,9.60001117 L8.00000931,9.60001117 Z" id="形状"></path>
                </g>
            </g>
        </g>
    </g>
</svg>