<?xml version="1.0" encoding="utf-8"?>
<!-- Generator: Adobe Illustrator 23.0.3, SVG Export Plug-In . SVG Version: 6.00 Build 0)  -->
<svg version="1.1" id="图层_1" xmlns="http://www.w3.org/2000/svg" xmlns:xlink="http://www.w3.org/1999/xlink" x="0px" y="0px"
	 viewBox="0 0 110 30" style="enable-background:new 0 0 110 30;" xml:space="preserve">
<style type="text/css">
	.st0{opacity:0.8;fill-rule:evenodd;clip-rule:evenodd;fill:#FFFFFF;enable-background:new    ;}
	.st1{fill-rule:evenodd;clip-rule:evenodd;fill:#FFFFFF;}
	.st2{opacity:0.2;fill-rule:evenodd;clip-rule:evenodd;fill:#FFFFFF;enable-background:new    ;}
	.st3{opacity:0.4;fill-rule:evenodd;clip-rule:evenodd;fill:#FFFFFF;enable-background:new    ;}
	.st4{opacity:0.6;fill-rule:evenodd;clip-rule:evenodd;fill:#FFFFFF;enable-background:new    ;}
</style>
<g>
	<g transform="translate(-1365.000000, -243.000000)">
		<g id="离港" transform="translate(970.000000, 196.000000)">
			<g id="编组-4" transform="translate(295.000000, 47.000000)">
				<g transform="translate(100.000000, 0.000000)">
					<g id="编组" transform="translate(40.000000, 0.000000)">
						<path id="Fill-1-Copy-7" class="st0" d="M17.5,17.4c-0.2,0.4-0.4,0.8-0.6,1.2c0.7,0,1,0,1.1,0c0.1,0,0.1,0,0.1,0
							c0.3,0,0.5,0.1,0.6,0.2c0.2,0.2,0.2,0.4,0.2,0.8c0,0.7-0.3,1-0.9,1c0,0-0.1,0-0.1,0c-0.2,0-0.5,0-1.3,0c-0.3,0-0.5,0-0.7-0.1
							c-1.3,2.8-2.9,6-3.7,7.6C12,28.7,11.9,29,11.8,29c-0.4,0.8-1.4,0.9-1.8,1c-0.2,0-0.4-0.1-0.6-0.2c0,0-0.1-0.1-0.1-0.1
							c-0.2-0.2-0.2-0.5-0.1-0.8l0,0c0.3-0.8,2.5-7.8,2.8-8.6c0.2-0.6,0.4-2.3,0.5-3.1c-0.2,0-0.5,0-0.6,0c-2,0-4.9-0.1-6.8-0.3
							c-0.1,0-0.3,0-0.5-0.1c-0.2,0.4-0.8,1.4-1.7,3.1c-0.1,0.2-0.3,0.2-0.4,0.2l-0.7-0.1c-0.1,0-0.2-0.1-0.3-0.1c0,0,0-0.1-0.1-0.1
							c0-0.1-0.1-0.2-0.1-0.3c0,0,0-0.1,0-0.1c0,0,0,0,0,0c0.1-0.4,0.6-3,0.6-3l0,0c0-0.1,0-0.1,0.1-0.2c-0.1,0-0.1,0-0.2-0.1l0,0
							C1.8,16.1,1.7,16,1.5,16c-0.8-0.3-1.3-0.4-1.5-0.6C0,15.3,0,15.2,0,15.1l0-0.2c0-0.3,0.5-0.5,1.5-0.9C1.7,14,1.8,14,2,13.9
							c0.1,0,0.1,0,0.2-0.1c0-0.1,0-0.1-0.1-0.2l0,0c0,0-0.5-2.7-0.6-3c0,0,0,0,0,0c0,0,0-0.1,0-0.1c0,0,0,0,0,0
							c0-0.1,0-0.2,0.1-0.3C1.6,10,1.7,10,1.8,9.9l0.7-0.1c0.1,0,0.3,0,0.4,0.1c0,0,0,0.1,0.1,0.1c0.9,1.7,1.5,2.7,1.7,3.1
							c0.2,0,0.4-0.1,0.5-0.1c1.9-0.2,4.8-0.3,6.8-0.3c0.1,0,0.3,0,0.6,0c-0.1-1-0.3-2.5-0.5-3.1c-0.3-1-2.8-8.6-2.8-8.6
							c-0.1-0.3,0-0.6,0.1-0.8C9.5,0.1,9.8,0,10.1,0c0.3,0,1.1,0.1,1.5,0.6c0.1,0.1,0.2,0.2,0.2,0.3c0,0.1,0.2,0.4,0.4,0.8
							c0.7,1.5,2.5,5,3.7,7.7c0.2,0,0.4-0.1,0.7-0.1c0.8,0,1.1,0,1.3,0c0.1,0,0.1,0,0.1,0c0.3,0,0.5,0.1,0.6,0.2
							C18.9,9.8,19,10,19,10.4c0,0.7-0.3,1-0.9,1c0,0-0.1,0-0.1,0c-0.2,0-0.4,0-1.1,0l0.6,1.2c2.2,0,6.7-0.1,8.1,0
							c1.6,0.1,3.3,0.6,4,1.4c0.3,0.3,0.4,0.6,0.4,1c0,1.3-2.2,2.2-4.4,2.4C24.2,17.5,19.6,17.4,17.5,17.4z"/>
						<path id="形状结合" class="st1" d="M1.7,16c0,0-0.1,0-0.1-0.1c-0.8-0.3-1.3-0.4-1.5-0.6C0,15.3,0,15.2,0,15.1l0-0.2
							c0-0.3,0.5-0.5,1.5-0.9C1.7,14,1.8,14,2,13.9c0.1,0,0.1,0,0.2-0.1c0-0.1,0-0.1-0.1-0.2l0,0c0,0-0.5-2.7-0.6-3c0,0,0,0,0,0
							c0,0,0-0.1,0-0.1c0,0,0,0,0,0c0-0.1,0-0.2,0.1-0.3C1.6,10,1.7,10,1.8,9.9l0.7-0.1c0.1,0,0.3,0,0.4,0.1c0,0,0,0.1,0.1,0.1
							c0.9,1.7,1.5,2.7,1.7,3.1c0.2,0,0.4-0.1,0.5-0.1c1.9-0.2,4.8-0.3,6.8-0.3c0.1,0,0.3,0,0.6,0c-0.1-1-0.3-2.5-0.5-3.1
							c-0.3-1-2.8-8.6-2.8-8.6c-0.1-0.3,0-0.6,0.1-0.8C9.5,0.1,9.8,0,10.1,0c0.3,0,1.1,0.1,1.5,0.6c0.1,0.1,0.2,0.2,0.2,0.3
							c0,0.1,0.2,0.4,0.4,0.8c0.7,1.5,2.5,5,3.7,7.7c0.2,0,0.4-0.1,0.7-0.1c0.8,0,1.1,0,1.3,0c0.1,0,0.1,0,0.1,0
							c0.3,0,0.5,0.1,0.6,0.2C18.9,9.8,19,10,19,10.4c0,0.7-0.3,1-0.9,1c0,0-0.1,0-0.1,0c-0.2,0-0.4,0-1.1,0l0.6,1.2
							c1.2,0,3-0.1,4.7-0.1C19.2,14,15,15,8.8,15C6.5,15,4.1,15.3,1.7,16z"/>
					</g>
					<circle id="Oval-2" class="st1" cx="30" cy="15" r="2"/>
					<circle id="Oval-2备份-5" class="st2" cx="108" cy="15" r="2"/>
					<circle id="Oval-2备份" class="st0" cx="23" cy="15" r="2"/>
					<circle id="Oval-2备份-6" class="st3" cx="101" cy="15" r="2"/>
					<circle id="Oval-2备份-2" class="st4" cx="16" cy="15" r="2"/>
					<circle id="Oval-2备份-7" class="st4" cx="94" cy="15" r="2"/>
					<circle id="Oval-2备份-3" class="st3" cx="9" cy="15" r="2"/>
					<circle id="Oval-2备份-8" class="st0" cx="87" cy="15" r="2"/>
					<circle id="Oval-2备份-4" class="st2" cx="2" cy="15" r="2"/>
					<circle id="Oval-2备份-9" class="st1" cx="80" cy="15" r="2"/>
				</g>
			</g>
		</g>
	</g>
</g>
</svg>
