<?xml version="1.0" encoding="UTF-8"?>
<svg width="10px" height="15px" viewBox="0 0 10 15" version="1.1" xmlns="http://www.w3.org/2000/svg" xmlns:xlink="http://www.w3.org/1999/xlink">
    <title>-mockplus-</title>
    <g id="动态调整" stroke="none" stroke-width="1" fill="none" fill-rule="evenodd">
        <g transform="translate(-1663.000000, -486.000000)" id="编组-11">
            <g transform="translate(1615.952735, 93.669149)">
                <g id="编组-8" transform="translate(45.047265, 200.330851)">
                    <g id="-mockplus-" transform="translate(2.000000, 192.000000)">
                        <g id="icon/标记备份" transform="translate(1.000000, 0.000000)">
                            <g id="编组" transform="translate(0.562500, 0.000000)">
                                <path d="M0.275297224,0 C0.199545,0.00182234894 0.127863502,0.0451278871 0.0777482307,0.119346913 C-0.0259160769,0.281986534 -0.0259160769,0.518104502 0.0777482307,0.680744123 C0.127863502,0.754963149 0.199545,0.798268687 0.275297224,0.800091036 L0.546863281,0.800091036 L0.546863281,13.5386462 C0.556065459,13.7023414 0.625790454,13.8498972 0.733692562,13.9340245 C0.838262198,14.0136834 0.967559573,14.0136834 1.07212921,13.9340245 L3.29110976,12.1064833 C3.46961667,11.9567013 3.69861382,11.9567013 3.87712072,12.1064833 L6.07210954,13.9340245 C6.1736125,14.0195231 6.30352192,14.0221098 6.40697295,13.940692 C6.51310057,13.8546856 6.57818914,13.7037702 6.57950928,13.5406465 L6.57950928,0.800757778 L6.85464857,0.800757778 C6.93201421,0.802327441 7.00624532,0.76087822 7.05883358,0.686744806 C7.11404854,0.608893959 7.14404974,0.506149698 7.14254943,0.400045518 C7.14982083,0.190953133 7.0273536,0.0128889075 6.86741013,0 L0.275297224,0 Z" id="路径" fill="#BC1D1D"></path>
                                <path d="M5.08079133,6.32193887 L4.30182554,7.14269893 L4.59483102,8.45951543 C4.6877352,8.87022882 4.56267188,8.99290945 4.31611849,8.73488009 L3.57288507,7.92878837 L2.8153587,8.73488009 C2.5688053,8.99490968 2.45803494,8.8682286 2.53664616,8.45951543 L2.82965165,7.14269893 L2.05068585,6.32193887 C1.8184254,6.07191043 1.86845073,5.87122092 2.16145621,5.87122092 L3.11193742,5.87122092 L3.40136966,4.5744067 C3.49784708,4.15369217 3.64792306,4.15369217 3.75869342,4.5744067 L4.04812567,5.87122092 L5.00218011,5.87122092 C5.2773194,5.87122092 5.32734473,6.07124368 5.09508428,6.32193887 L5.08079133,6.32193887 Z" id="路径" fill="#000000"></path>
                            </g>
                        </g>
                    </g>
                </g>
            </g>
        </g>
    </g>
</svg>