<?xml version="1.0" encoding="UTF-8"?>
<svg width="32px" height="32px" viewBox="0 0 32 32" version="1.1" xmlns="http://www.w3.org/2000/svg" xmlns:xlink="http://www.w3.org/1999/xlink">
    <!-- Generator: Sketch 56.2 (81672) - https://sketch.com -->
    <title>icon/标记</title>
    <desc>Created with Sketch.</desc>
    <defs>
        <path d="M16.2585323,14.450146 L13.7658417,16.326169 L14.7034593,19.3360353 C15.0007526,20.2748087 14.60055,20.5552216 13.8115792,19.9654402 L11.4332322,18.1229448 L9.00914782,19.9654402 C8.22017696,20.5597935 7.86571179,20.2702368 8.11726772,19.3360353 L9.05488527,16.326169 L6.56219472,14.450146 C5.81896129,13.8786524 5.97904234,13.4199335 6.91665989,13.4199335 L9.95819973,13.4199335 L10.8843829,10.4557867 C11.1931106,9.49415352 11.6733538,9.49415352 12.0278189,10.4557867 L12.9540021,13.4199335 L16.0069763,13.4199335 C16.8874221,13.4199335 17.0475031,13.8771284 16.3042697,14.450146 L16.2585323,14.450146 Z" id="path-1"></path>
        <filter x="-112.3%" y="-113.8%" width="324.7%" height="327.7%" filterUnits="objectBoundingBox" id="filter-2">
            <feOffset dx="0" dy="0" in="SourceAlpha" result="shadowOffsetOuter1"></feOffset>
            <feGaussianBlur stdDeviation="4" in="shadowOffsetOuter1" result="shadowBlurOuter1"></feGaussianBlur>
            <feColorMatrix values="0 0 0 0 0   0 0 0 0 0   0 0 0 0 0  0 0 0 0.5 0" type="matrix" in="shadowBlurOuter1"></feColorMatrix>
        </filter>
    </defs>
    <g id="icon/标记" stroke="none" stroke-width="1" fill="none" fill-rule="evenodd">
        <g id="编组" transform="translate(5.000000, 0.000000)">
            <path d="M0.880951116,0 C0.638544,0.00416536901 0.409163207,0.103149456 0.248794338,0.272792944 C-0.082931446,0.644540649 -0.082931446,1.18423886 0.248794338,1.55598657 C0.409163207,1.72563005 0.638544,1.82461414 0.880951116,1.82877951 L1.7499625,1.82877951 L1.7499625,30.9454771 C1.77940947,31.3196374 2.00252945,31.6569079 2.3478162,31.849199 C2.68243903,32.0312763 3.09619063,32.0312763 3.43081347,31.849199 L10.5315512,27.6719618 C11.1027733,27.3296029 11.8355642,27.3296029 12.4067863,27.6719618 L19.4307505,31.849199 C19.75556,32.0446243 20.1712702,32.0505366 20.5023134,31.8644388 C20.8419218,31.6678528 21.0502052,31.3229033 21.0544297,30.950049 L21.0544297,1.83030349 L21.9348754,1.83030349 C22.1824455,1.83389129 22.419985,1.73915022 22.5882674,1.56970241 C22.7649553,1.39175762 22.8609592,1.1569136 22.8561582,0.914389755 C22.8794266,0.436464305 22.4875315,0.02946036 21.9757124,0 L0.880951116,0 Z" id="路径" fill="#FFCB00"></path>
            <g id="路径">
                <use fill="black" fill-opacity="1" filter="url(#filter-2)" xlink:href="#path-1"></use>
                <use fill="#000000" fill-rule="evenodd" xlink:href="#path-1"></use>
            </g>
        </g>
    </g>
</svg>