<?xml version="1.0" encoding="UTF-8"?>
<svg width="28px" height="28px" viewBox="0 0 28 28" version="1.1" xmlns="http://www.w3.org/2000/svg" xmlns:xlink="http://www.w3.org/1999/xlink">
    <title>编组 2备份</title>
    <g id="动态调整" stroke="none" stroke-width="1" fill="none" fill-rule="evenodd">
        <g transform="translate(-1873.000000, -58.000000)" id="编组-2备份">
            <g transform="translate(1873.000000, 58.000000)">
                <circle id="椭圆形" stroke="#0182E7" fill-opacity="0.353289176" fill="#4A90E2" cx="14" cy="14" r="13.5"></circle>
                <path d="M14.7665904,17.8461538 L14.7665904,17.3406593 C14.7665904,16.7472527 14.9038902,16.2197802 15.201373,15.7362637 C15.4302059,15.3406593 15.7734554,14.9450549 16.2768879,14.5274725 C17.2837529,13.6703297 17.9016018,13.0989011 18.1304348,12.8351648 C18.7025172,12.1098901 19,11.2527473 19,10.2637363 C19,8.94505495 18.5652174,7.91208791 17.7185355,7.16483516 C16.826087,6.37362637 15.6590389,6 14.194508,6 C12.5469108,6 11.2654462,6.48351648 10.3501144,7.45054945 C9.43478261,8.37362637 9,9.6043956 9,11.1428571 L10.8077803,11.1428571 C10.8077803,10.0659341 11.0594966,9.23076923 11.5629291,8.61538462 C12.1121281,7.89010989 12.9588101,7.53846154 14.1029748,7.53846154 C15.0640732,7.53846154 15.819222,7.78021978 16.3455378,8.30769231 C16.8489703,8.79120879 17.1235698,9.47252747 17.1235698,10.3516484 C17.1235698,10.967033 16.8947368,11.5384615 16.4370709,12.0879121 C16.2997712,12.2637363 16.0251716,12.5274725 15.6590389,12.8791209 C14.423341,13.9340659 13.6681922,14.7692308 13.3478261,15.4285714 C13.0732265,15.978022 12.9359268,16.6153846 12.9359268,17.3406593 L12.9359268,17.8461538 L14.7665904,17.8461538 Z M13.8512586,22 C14.2402746,22 14.5606407,21.8681319 14.8352403,21.6263736 C15.1098398,21.3846154 15.2471396,21.0769231 15.2471396,20.6813187 C15.2471396,20.3076923 15.1098398,20 14.8581236,19.7582418 C14.583524,19.4945055 14.2402746,19.3846154 13.8512586,19.3846154 C13.4622426,19.3846154 13.1418764,19.4945055 12.8672769,19.7582418 C12.5926773,20 12.4782609,20.3076923 12.4782609,20.6813187 C12.4782609,21.0549451 12.5926773,21.3626374 12.8672769,21.6263736 C13.1418764,21.8681319 13.4622426,22 13.8512586,22 Z" id="？" fill="#FFFFFF" fill-rule="nonzero"></path>
            </g>
        </g>
    </g>
</svg>