<?xml version="1.0" encoding="utf-8"?>
<!-- Generator: Adobe Illustrator 23.0.3, SVG Export Plug-In . SVG Version: 6.00 Build 0)  -->
<svg version="1.1" id="图层_1" xmlns="http://www.w3.org/2000/svg" xmlns:xlink="http://www.w3.org/1999/xlink" x="0px" y="0px"
	 viewBox="0 0 30 18" style="enable-background:new 0 0 30 18;" xml:space="preserve">
<style type="text/css">
	.st0{fill-rule:evenodd;clip-rule:evenodd;fill:url(#形状结合_1_);}
</style>
<g>
	<g transform="translate(-1231.000000, -204.000000)">
		<g id="离港" transform="translate(970.000000, 196.000000)">

				<linearGradient id="形状结合_1_" gradientUnits="userSpaceOnUse" x1="-1579.5333" y1="528.2355" x2="-1578.5333" y2="527.8755" gradientTransform="matrix(30 0 0 -18 47647 9522)">
				<stop  offset="0" style="stop-color:#FFE579"/>
				<stop  offset="1" style="stop-color:#FFC200"/>
			</linearGradient>
			<path id="形状结合" class="st0" d="M263,8h26c1.1,0,2,0.9,2,2v14c0,1.1-0.9,2-2,2h-26c-1.1,0-2-0.9-2-2V10
				C261,8.9,261.9,8,263,8z M266.2,24L281,10h-4.9l-6.2,5.8V10H265v1.2h1.2V24z M275,24h1.9l1.1-8h-1.9L275,24z M286.9,19
				c0.2-0.8,0-1.6-0.5-2.2c-0.6-0.6-1.3-0.8-2.1-0.8h-3.9l-1.5,2.1h5.4c0.2,0,0.5,0.1,0.6,0.2c0.2,0.2,0.2,0.4,0.2,0.7
				c0,0.3-0.2,0.5-0.4,0.6c-0.2,0.2-0.5,0.3-0.7,0.3h-5.4L278,24h1.9l0.3-2h3.3c0.8,0,1.6-0.3,2.3-0.8
				C286.4,20.6,286.8,19.9,286.9,19z"/>
		</g>
	</g>
</g>
</svg>
